HIERARCHY
ROOT Hips
{
	OFFSET 0.053599 -3.107461 88.859886
	CHANNELS 6 Xposition Yposition Zposition Zrotation Yrotation Xrotation
	JOINT Spine
	{
		OFFSET 0.000000 2.080106 8.814247
		CHANNELS 6 Xposition Yposition Zposition Zrotation Yrotation Xrotation
		JOINT Spine1
		{
			OFFSET -0.000000 -0.000002 8.844139
			CHANNELS 6 Xposition Yposition Zposition Zrotation Yrotation Xrotation
			JOINT Spine2
			{
				OFFSET 0.000000 -0.000002 11.682266
				CHANNELS 6 Xposition Yposition Zposition Zrotation Yrotation Xrotation
				JOINT Spine3
				{
					OFFSET 0.000000 -0.000002 11.746696
					CHANNELS 6 Xposition Yposition Zposition Zrotation Yrotation Xrotation
					JOINT Neck
					{
						OFFSET 0.000000 -0.000003 17.658264
						CHANNELS 6 Xposition Yposition Zposition Zrotation Yrotation Xrotation
						JOINT Neck1
						{
							OFFSET 0.000000 -0.000001 5.101517
							CHANNELS 6 Xposition Yposition Zposition Zrotation Yrotation Xrotation
							JOINT Head
							{
								OFFSET 0.000000 -0.000001 5.101517
								CHANNELS 6 Xposition Yposition Zposition Zrotation Yrotation Xrotation
								JOINT HeadEnd
								{
									OFFSET 0.000000 -0.000002 11.655090
									CHANNELS 6 Xposition Yposition Zposition Zrotation Yrotation Xrotation
									End Site
									{
										OFFSET 0.000000 0.000000 0.100006
									}
								}
							}
						}
					}
					JOINT RightShoulder
					{
						OFFSET -2.625389 -0.000002 11.175217
						CHANNELS 6 Xposition Yposition Zposition Zrotation Yrotation Xrotation
						JOINT RightArm
						{
							OFFSET -10.434450 -0.000002 0.073257
							CHANNELS 6 Xposition Yposition Zposition Zrotation Yrotation Xrotation
							JOINT RightForeArm
							{
								OFFSET -29.627689 -0.000006 0.208023
								CHANNELS 6 Xposition Yposition Zposition Zrotation Yrotation Xrotation
								JOINT RightHand
								{
									OFFSET -22.857037 -0.000004 0.160492
									CHANNELS 6 Xposition Yposition Zposition Zrotation Yrotation Xrotation
									JOINT RightHandThumb1
									{
										OFFSET -3.979599 -2.944292 -2.839447
										CHANNELS 6 Xposition Yposition Zposition Zrotation Yrotation Xrotation
										JOINT RightHandThumb2
										{
											OFFSET -3.350319 -0.000000 0.023529
											CHANNELS 6 Xposition Yposition Zposition Zrotation Yrotation Xrotation
											JOINT RightHandThumb3
											{
												OFFSET -3.756424 -0.000001 0.026367
												CHANNELS 6 Xposition Yposition Zposition Zrotation Yrotation Xrotation
												JOINT RightHandThumb4
												{
													OFFSET -3.147263 -0.000000 0.022095
													CHANNELS 6 Xposition Yposition Zposition Zrotation Yrotation Xrotation
													End Site
													{
														OFFSET -0.100006 0.000000 0.000702
													}
												}
											}
										}
									}
									JOINT RightHandIndex1
									{
										OFFSET -10.031258 -2.345282 -0.016327
										CHANNELS 6 Xposition Yposition Zposition Zrotation Yrotation Xrotation
										JOINT RightHandIndex2
										{
											OFFSET -4.060997 -0.000001 0.028519
											CHANNELS 6 Xposition Yposition Zposition Zrotation Yrotation Xrotation
											JOINT RightHandIndex3
											{
												OFFSET -3.248787 -0.000000 0.022812
												CHANNELS 6 Xposition Yposition Zposition Zrotation Yrotation Xrotation
												JOINT RightHandIndex4
												{
													OFFSET -2.639641 -0.000000 0.018539
													CHANNELS 6 Xposition Yposition Zposition Zrotation Yrotation Xrotation
													End Site
													{
														OFFSET -0.100006 0.000000 0.000702
													}
												}
											}
										}
									}
									JOINT RightHandMiddle1
									{
										OFFSET -9.501976 -0.006770 0.170822
										CHANNELS 6 Xposition Yposition Zposition Zrotation Yrotation Xrotation
										JOINT RightHandMiddle2
										{
											OFFSET -4.568611 -0.000001 0.032074
											CHANNELS 6 Xposition Yposition Zposition Zrotation Yrotation Xrotation
											JOINT RightHandMiddle3
											{
												OFFSET -3.654892 -0.000001 0.025665
												CHANNELS 6 Xposition Yposition Zposition Zrotation Yrotation Xrotation
												JOINT RightHandMiddle4
												{
													OFFSET -2.741173 -0.000001 0.019241
													CHANNELS 6 Xposition Yposition Zposition Zrotation Yrotation Xrotation
													End Site
													{
														OFFSET -0.100006 0.000000 0.000702
													}
												}
											}
										}
									}
									JOINT RightHandRing1
									{
										OFFSET -8.920876 2.267440 0.149399
										CHANNELS 6 Xposition Yposition Zposition Zrotation Yrotation Xrotation
										JOINT RightHandRing2
										{
											OFFSET -4.060997 -0.000001 0.028519
											CHANNELS 6 Xposition Yposition Zposition Zrotation Yrotation Xrotation
											JOINT RightHandRing3
											{
												OFFSET -3.654892 -0.000001 0.025665
												CHANNELS 6 Xposition Yposition Zposition Zrotation Yrotation Xrotation
												JOINT RightHandRing4
												{
													OFFSET -2.741173 -0.000000 0.019241
													CHANNELS 6 Xposition Yposition Zposition Zrotation Yrotation Xrotation
													End Site
													{
														OFFSET -0.100006 0.000000 0.000702
													}
												}
											}
										}
									}
									JOINT RightHandPinky1
									{
										OFFSET -7.978012 4.467197 -0.117493
										CHANNELS 6 Xposition Yposition Zposition Zrotation Yrotation Xrotation
										JOINT RightHandPinky2
										{
											OFFSET -3.350319 0.000000 0.023529
											CHANNELS 6 Xposition Yposition Zposition Zrotation Yrotation Xrotation
											JOINT RightHandPinky3
											{
												OFFSET -2.842690 -0.000000 0.019958
												CHANNELS 6 Xposition Yposition Zposition Zrotation Yrotation Xrotation
												JOINT RightHandPinky4
												{
													OFFSET -2.639641 -0.000000 0.018539
													CHANNELS 6 Xposition Yposition Zposition Zrotation Yrotation Xrotation
													End Site
													{
														OFFSET -0.100006 0.000000 0.000702
													}
												}
											}
										}
									}
									JOINT RightForeArmEnd
									{
										OFFSET 0.000000 0.000000 0.000000
										CHANNELS 6 Xposition Yposition Zposition Zrotation Yrotation Xrotation
										End Site
										{
											OFFSET -0.100006 0.000000 0.000702
										}
									}
								}
								JOINT RightArmEnd
								{
									OFFSET 0.000000 0.000000 0.000000
									CHANNELS 6 Xposition Yposition Zposition Zrotation Yrotation Xrotation
									End Site
									{
										OFFSET -0.100002 0.000000 0.000702
									}
								}
							}
						}
					}
					JOINT LeftShoulder
					{
						OFFSET 2.625389 -0.000002 11.175217
						CHANNELS 6 Xposition Yposition Zposition Zrotation Yrotation Xrotation
						JOINT LeftArm
						{
							OFFSET 10.804386 -0.000002 0.447021
							CHANNELS 6 Xposition Yposition Zposition Zrotation Yrotation Xrotation
							JOINT LeftForeArm
							{
								OFFSET 28.700224 -0.000005 1.187454
								CHANNELS 6 Xposition Yposition Zposition Zrotation Yrotation Xrotation
								JOINT LeftHand
								{
									OFFSET 25.720829 0.328866 0.419235
									CHANNELS 6 Xposition Yposition Zposition Zrotation Yrotation Xrotation
									JOINT LeftHandThumb1
									{
										OFFSET 4.074707 -2.944292 -2.701202
										CHANNELS 6 Xposition Yposition Zposition Zrotation Yrotation Xrotation
										JOINT LeftHandThumb2
										{
											OFFSET 3.347542 -0.000000 0.138504
											CHANNELS 6 Xposition Yposition Zposition Zrotation Yrotation Xrotation
											JOINT LeftHandThumb3
											{
												OFFSET 3.753304 -0.000001 0.155289
												CHANNELS 6 Xposition Yposition Zposition Zrotation Yrotation Xrotation
												JOINT LeftHandThumb4
												{
													OFFSET 3.097359 -0.000000 0.128143
													CHANNELS 6 Xposition Yposition Zposition Zrotation Yrotation Xrotation
													End Site
													{
														OFFSET 0.099922 0.000000 0.004135
													}
												}
											}
										}
									}
									JOINT LeftHandIndex1
									{
										OFFSET 10.025909 -2.345282 0.327988
										CHANNELS 6 Xposition Yposition Zposition Zrotation Yrotation Xrotation
										JOINT LeftHandIndex2
										{
											OFFSET 4.057625 -0.000001 0.167877
											CHANNELS 6 Xposition Yposition Zposition Zrotation Yrotation Xrotation
											JOINT LeftHandIndex3
											{
												OFFSET 3.246094 -0.000000 0.134308
												CHANNELS 6 Xposition Yposition Zposition Zrotation Yrotation Xrotation
												JOINT LeftHandIndex4
												{
													OFFSET 2.637451 -0.000000 0.109116
													CHANNELS 6 Xposition Yposition Zposition Zrotation Yrotation Xrotation
													End Site
													{
														OFFSET 0.099922 0.000000 0.004135
													}
												}
											}
										}
									}
									JOINT LeftHandMiddle1
									{
										OFFSET 9.490517 -0.006770 0.496857
										CHANNELS 6 Xposition Yposition Zposition Zrotation Yrotation Xrotation
										JOINT LeftHandMiddle2
										{
											OFFSET 4.564819 -0.000001 0.188858
											CHANNELS 6 Xposition Yposition Zposition Zrotation Yrotation Xrotation
											JOINT LeftHandMiddle3
											{
												OFFSET 3.651863 -0.000001 0.151093
												CHANNELS 6 Xposition Yposition Zposition Zrotation Yrotation Xrotation
												JOINT LeftHandMiddle4
												{
													OFFSET 2.738899 -0.000001 0.113327
													CHANNELS 6 Xposition Yposition Zposition Zrotation Yrotation Xrotation
													End Site
													{
														OFFSET 0.099922 0.000000 0.004135
													}
												}
											}
										}
									}
									JOINT LeftHandRing1
									{
										OFFSET 8.910492 2.267440 0.455490
										CHANNELS 6 Xposition Yposition Zposition Zrotation Yrotation Xrotation
										JOINT LeftHandRing2
										{
											OFFSET 4.057625 -0.000001 0.167877
											CHANNELS 6 Xposition Yposition Zposition Zrotation Yrotation Xrotation
											JOINT LeftHandRing3
											{
												OFFSET 3.651863 -0.000001 0.151093
												CHANNELS 6 Xposition Yposition Zposition Zrotation Yrotation Xrotation
												JOINT LeftHandRing4
												{
													OFFSET 2.738899 -0.000001 0.113327
													CHANNELS 6 Xposition Yposition Zposition Zrotation Yrotation Xrotation
													End Site
													{
														OFFSET 0.099922 0.000000 0.004135
													}
												}
											}
										}
									}
									JOINT LeftHandPinky1
									{
										OFFSET 7.977341 4.467197 0.156403
										CHANNELS 6 Xposition Yposition Zposition Zrotation Yrotation Xrotation
										JOINT LeftHandPinky2
										{
											OFFSET 3.347542 -0.000001 0.138504
											CHANNELS 6 Xposition Yposition Zposition Zrotation Yrotation Xrotation
											JOINT LeftHandPinky3
											{
												OFFSET 2.840332 -0.000000 0.117523
												CHANNELS 6 Xposition Yposition Zposition Zrotation Yrotation Xrotation
												JOINT LeftHandPinky4
												{
													OFFSET 2.637451 -0.000000 0.109116
													CHANNELS 6 Xposition Yposition Zposition Zrotation Yrotation Xrotation
													End Site
													{
														OFFSET 0.099922 0.000000 0.004135
													}
												}
											}
										}
									}
									JOINT LeftForeArmEnd
									{
										OFFSET 0.000000 0.000000 0.000000
										CHANNELS 6 Xposition Yposition Zposition Zrotation Yrotation Xrotation
										End Site
										{
											OFFSET 0.099922 0.000000 0.004135
										}
									}
								}
								JOINT LeftArmEnd
								{
									OFFSET 0.000000 0.000000 0.000000
									CHANNELS 6 Xposition Yposition Zposition Zrotation Yrotation Xrotation
									End Site
									{
										OFFSET 0.099922 0.000000 0.004135
									}
								}
							}
						}
					}
				}
			}
		}
	}
	JOINT RightUpLeg
	{
		OFFSET -11.289943 0.000000 0.000000
		CHANNELS 6 Xposition Yposition Zposition Zrotation Yrotation Xrotation
		JOINT RightLeg
		{
			OFFSET 0.000000 0.000006 -38.200325
			CHANNELS 6 Xposition Yposition Zposition Zrotation Yrotation Xrotation
			JOINT RightFoot
			{
				OFFSET 0.000000 0.000007 -39.900856
				CHANNELS 6 Xposition Yposition Zposition Zrotation Yrotation Xrotation
				JOINT RightToeBase
				{
					OFFSET 0.000000 -15.261641 -0.000004
					CHANNELS 6 Xposition Yposition Zposition Zrotation Yrotation Xrotation
					JOINT RightToeBaseEnd
					{
						OFFSET 0.000000 -7.370708 -0.000001
						CHANNELS 6 Xposition Yposition Zposition Zrotation Yrotation Xrotation
						End Site
						{
							OFFSET 0.000000 0.000000 0.100000
						}
					}
				}
				JOINT RightLegEnd
				{
					OFFSET 0.000000 0.000000 -0.000004
					CHANNELS 6 Xposition Yposition Zposition Zrotation Yrotation Xrotation
					End Site
					{
						OFFSET 0.000000 0.000000 0.100000
					}
				}
			}
			JOINT RightUpLegEnd
			{
				OFFSET 0.000000 0.000000 0.000000
				CHANNELS 6 Xposition Yposition Zposition Zrotation Yrotation Xrotation
				End Site
				{
					OFFSET 0.000000 0.000000 0.099998
				}
			}
		}
	}
	JOINT LeftUpLeg
	{
		OFFSET 11.315661 0.000000 0.000000
		CHANNELS 6 Xposition Yposition Zposition Zrotation Yrotation Xrotation
		JOINT LeftLeg
		{
			OFFSET 0.000000 0.000006 -38.200325
			CHANNELS 6 Xposition Yposition Zposition Zrotation Yrotation Xrotation
			JOINT LeftFoot
			{
				OFFSET 0.000000 0.000007 -39.900856
				CHANNELS 6 Xposition Yposition Zposition Zrotation Yrotation Xrotation
				JOINT LeftToeBase
				{
					OFFSET 0.000000 -15.261641 -0.000004
					CHANNELS 6 Xposition Yposition Zposition Zrotation Yrotation Xrotation
					JOINT LeftToeBaseEnd
					{
						OFFSET 0.000000 -7.539997 -0.000001
						CHANNELS 6 Xposition Yposition Zposition Zrotation Yrotation Xrotation
						End Site
						{
							OFFSET 0.000000 0.000000 0.100000
						}
					}
				}
				JOINT LeftLegEnd
				{
					OFFSET 0.000000 0.000000 -0.000004
					CHANNELS 6 Xposition Yposition Zposition Zrotation Yrotation Xrotation
					End Site
					{
						OFFSET 0.000000 0.000000 0.100000
					}
				}
			}
			JOINT LeftUpLegEnd
			{
				OFFSET 0.000000 0.000000 0.000000
				CHANNELS 6 Xposition Yposition Zposition Zrotation Yrotation Xrotation
				End Site
				{
					OFFSET 0.000000 0.000000 0.099998
				}
			}
		}
	}
}
MOTION
Frames: 2
Frame Time: 0.033333
0.559483 -3.376983 88.595711 -1.458880 -0.216004 -12.068987 0.000000 2.080107 8.814242 0.250398 -0.906320 7.223483 -0.000000 -0.000001 8.844144 0.310143 0.962221 2.290664 0.000000 -0.000002 11.682274 0.172953 0.088898 5.793638 0.000000 -0.000001 11.746706 0.495964 1.594394 5.254520 -0.000000 -0.000004 17.658247 -0.164864 -2.035711 6.974870 0.000000 0.000001 5.101538 -0.151929 -0.343013 -2.104414 0.000000 0.000006 5.101537 -0.944234 0.046836 -20.933027 -0.000000 -0.000003 11.655090 -0.000000 0.000000 0.000000 -2.625364 -0.000003 11.175208 -84.175743 -99.440424 84.193146 -10.434470 0.000004 0.073255 -6.082012 -66.480308 29.286270 -29.627697 -0.000012 0.208004 56.241191 15.009624 -9.203310 -22.857031 -0.000003 0.160491 -5.887423 3.107421 -6.150914 -3.979597 -2.944298 -2.839448 54.136998 17.077648 -30.739263 -3.350307 -0.000001 0.023525 -15.631726 8.839222 6.734859 -3.756419 0.000002 0.026379 -10.745736 5.920773 4.763264 -3.147269 0.000003 0.022079 -0.000000 -0.000001 0.000000 -10.031247 -2.345287 -0.016318 9.321626 -1.418571 8.754954 -4.061010 -0.000004 0.028519 0.859893 -3.353232 -0.515567 -3.248797 -0.000002 0.022805 0.879272 -3.004425 -0.079666 -2.639645 0.000000 0.018541 0.000001 0.000001 0.000001 -9.501962 -0.006778 0.170832 4.788940 -0.679048 3.460086 -4.568618 -0.000006 0.032061 0.307392 -2.307215 -0.500165 -3.654896 -0.000007 0.025644 0.269515 -2.800375 -0.005857 -2.741184 -0.000003 0.019223 -0.000004 -0.000002 0.000001 -8.920874 2.267436 0.149387 -0.283672 -2.620898 -4.080789 -4.061005 -0.000006 0.028507 -0.546002 -3.237378 0.981986 -3.654889 -0.000002 0.025650 -0.372380 -3.327080 0.004128 -2.741173 0.000005 0.019211 -0.000000 -0.000000 0.000000 -7.978008 4.467194 -0.117487 -5.875647 -4.321948 -12.009502 -3.350309 -0.000003 0.023519 -1.523834 -4.246692 1.918801 -2.842684 0.000003 0.019971 -1.229692 -4.158500 -0.028233 -2.639632 0.000003 0.018538 -0.000001 -0.000001 -0.000000 -0.000001 -0.000002 0.000014 0.000002 -0.000001 -0.000003 0.000003 0.000001 0.000001 0.000002 0.000001 0.000002 2.625396 -0.000003 11.175221 119.201609 94.599923 119.439013 10.804393 -0.000001 0.447020 22.898344 67.924510 32.191177 28.700224 -0.000002 1.187454 -80.178464 -13.384108 -0.327710 25.720842 0.328871 0.419216 9.777899 3.776587 -1.932415 4.074708 -2.944286 -2.701229 -56.639528 -17.765373 -27.809484 3.347540 -0.000007 0.138521 12.801435 -7.043841 5.133317 3.753314 -0.000003 0.155311 9.004586 -4.715199 3.722715 3.097361 0.000001 0.128129 0.000000 -0.000001 -0.000000 10.025917 -2.345289 0.327978 -14.478080 -3.910772 -7.775504 4.057619 -0.000001 0.167894 0.251888 2.205701 0.576232 3.246115 -0.000001 0.134301 0.295352 2.141103 0.091683 2.637457 -0.000003 0.109115 0.000001 0.000000 0.000000 9.490528 -0.006774 0.496863 -8.285114 -1.395752 -3.159307 4.564818 -0.000002 0.188842 0.189084 2.532565 0.529332 3.651859 -0.000005 0.151120 0.136780 2.882772 0.029993 2.738897 -0.000004 0.113327 -0.000000 -0.000000 -0.000002 8.910501 2.267438 0.455487 -0.036186 4.043313 5.131074 4.057626 0.000006 0.167906 -0.488541 5.606052 -1.022168 3.651868 -0.000003 0.151120 -0.356496 5.653008 -0.028685 2.738897 0.000005 0.113310 0.000004 0.000001 -0.000000 7.977334 4.467193 0.156372 8.678392 7.675843 15.748212 3.347530 -0.000000 0.138513 -2.018250 8.627228 -2.062097 2.840345 0.000004 0.117514 -1.700804 8.478873 -0.016373 2.637447 0.000001 0.109127 0.000004 0.000002 -0.000000 0.000001 -0.000002 -0.000032 -0.000002 0.000001 -0.000001 -0.000000 0.000002 0.000015 -0.000001 0.000000 0.000000 -11.289943 -0.000000 0.000012 -9.400519 1.788658 16.052732 -0.000001 0.000006 -38.200321 -0.728694 0.089105 5.549720 0.000000 0.000008 -39.900860 -7.457208 2.393635 16.596287 -0.000002 -15.261642 -0.000003 0.861338 0.916897 -18.487159 0.000000 -7.370708 -0.000001 0.000001 -0.000000 -0.000001 -0.000001 -0.000000 -0.000003 -0.000001 0.000000 0.000001 0.000001 0.000001 -0.000004 -0.000001 0.000000 -0.000000 11.315661 0.000001 0.000009 -5.787907 1.505183 9.971665 0.000000 0.000006 -38.200321 0.335848 -0.075991 12.196104 -0.000001 0.000007 -39.900856 -1.799362 -4.029247 16.164517 -0.000000 -15.261641 -0.000005 -0.413905 -0.143415 -20.961007 -0.000000 -7.539999 -0.000001 0.000001 -0.000000 -0.000001 -0.000000 -0.000000 -0.000003 0.000000 0.000002 -0.000001 0.000000 -0.000000 -0.000004 -0.000000 0.000000 0.000001 
0.556380 -3.358652 88.583740 -1.457611 -0.251989 -12.104695 -0.000000 2.080108 8.814245 0.257668 -0.889080 7.241279 0.000000 -0.000001 8.844150 0.322153 0.968796 2.316440 0.000000 -0.000002 11.682262 0.196279 0.110427 5.792710 0.000000 -0.000001 11.746683 0.504636 1.610371 5.328523 0.000000 -0.000000 17.658262 -0.262368 -2.091985 7.124793 -0.000000 0.000008 5.101518 -0.217935 -0.337978 -2.015870 0.000000 -0.000002 5.101521 -0.936482 0.012941 -21.007625 -0.000000 0.000000 11.655090 -0.000000 0.000000 0.000000 -2.625374 -0.000003 11.175213 -84.390245 -99.394716 84.397533 -10.434465 -0.000001 0.073259 -6.688021 -66.417354 29.551124 -29.627691 -0.000001 0.208045 56.803473 15.103092 -9.050429 -22.857033 -0.000011 0.160462 -5.885177 3.521449 -6.533791 -3.979605 -2.944289 -2.839455 54.284991 17.282248 -30.594514 -3.350310 -0.000001 0.023513 -15.180258 8.555345 6.558152 -3.756411 0.000003 0.026363 -10.422402 5.734008 4.628867 -3.147260 0.000001 0.022066 0.000000 0.000001 0.000001 -10.031263 -2.345283 -0.016314 9.758147 -0.345586 8.721679 -4.061002 -0.000007 0.028514 0.786708 -2.815259 -0.519931 -3.248797 0.000000 0.022795 0.812418 -2.459996 -0.084625 -2.639655 0.000002 0.018540 -0.000001 0.000000 0.000000 -9.501981 -0.006773 0.170817 5.074086 0.349041 3.359298 -4.568611 0.000005 0.032062 0.277688 -1.785416 -0.502314 -3.654898 0.000000 0.025652 0.244308 -2.268436 -0.008255 -2.741183 -0.000003 0.019210 -0.000002 -0.000001 0.000001 -8.920873 2.267434 0.149415 -0.211737 -1.663937 -4.252752 -4.060978 -0.000003 0.028517 -0.508277 -2.701706 0.983039 -3.654887 0.000000 0.025673 -0.342593 -2.786163 0.005953 -2.741174 -0.000003 0.019224 -0.000002 -0.000001 -0.000001 -7.978014 4.467192 -0.117492 -5.988679 -3.494902 -12.221730 -3.350319 -0.000005 0.023526 -1.415968 -3.776071 1.921686 -2.842687 0.000003 0.019985 -1.139815 -3.683949 -0.022715 -2.639627 0.000003 0.018539 -0.000002 -0.000000 -0.000000 0.000003 -0.000002 -0.000001 0.000002 -0.000001 -0.000003 0.000011 -0.000001 0.000015 0.000001 -0.000000 -0.000000 2.625397 -0.000002 11.175216 119.352160 94.545418 119.588266 10.804395 0.000002 0.447019 22.758361 67.751611 32.104867 28.700228 0.000000 1.187470 -81.162953 -13.242347 0.039443 25.720840 0.328872 0.419226 9.443460 2.806615 -1.051467 4.074707 -2.944301 -2.701225 -57.010001 -18.209785 -27.467216 3.347541 -0.000006 0.138514 11.729590 -6.416373 4.758341 3.753320 -0.000005 0.155308 8.247063 -4.294847 3.434229 3.097360 0.000001 0.128130 -0.000001 -0.000001 -0.000000 10.025918 -2.345287 0.327981 -15.563435 -6.486296 -7.440135 4.057632 -0.000002 0.167889 0.211996 1.732746 0.584255 3.246096 0.000001 0.134289 0.260014 1.671915 0.099546 2.637445 0.000001 0.109099 -0.000001 0.000001 -0.000002 9.490520 -0.006774 0.496844 -9.041977 -3.857979 -3.159216 4.564814 -0.000003 0.188850 0.171375 2.050125 0.532423 3.651865 -0.000002 0.151082 0.122611 2.410237 0.033174 2.738893 0.000003 0.113344 0.000001 -0.000001 -0.000001 8.910503 2.267435 0.455494 -0.353473 1.625931 4.739473 4.057620 0.000009 0.167887 -0.460578 5.022110 -1.020937 3.651854 0.000001 0.151085 -0.334954 5.061228 -0.028483 2.738900 0.000000 0.113297 0.000001 -0.000000 0.000002 7.977340 4.467200 0.156390 8.738001 5.472316 15.143363 3.347527 -0.000000 0.138502 -1.927614 8.033433 -2.047658 2.840342 0.000002 0.117514 -1.626176 7.878405 -0.006075 2.637446 -0.000001 0.109112 -0.000002 0.000002 -0.000001 -0.000003 -0.000005 -0.000032 0.000002 0.000001 0.000000 -0.000002 0.000004 0.000000 0.000001 -0.000000 0.000002 -11.289943 0.000002 0.000010 -9.371091 1.793267 16.070593 0.000001 0.000006 -38.200336 -0.730461 0.090073 5.599737 0.000000 0.000006 -39.900852 -7.460583 2.413862 16.512879 -0.000001 -15.261642 -0.000005 0.862816 0.910464 -18.474046 0.000001 -7.370708 -0.000001 0.000001 0.000000 0.000001 0.000000 0.000000 -0.000003 0.000001 -0.000000 0.000001 0.000002 -0.000001 0.000004 -0.000001 -0.000000 0.000000 11.315660 0.000003 0.000014 -5.758670 1.508699 9.996679 -0.000001 0.000006 -38.200329 0.335299 -0.075548 12.195893 0.000000 0.000007 -39.900852 -1.829486 -4.000458 16.166469 0.000000 -15.261642 -0.000003 -0.418253 -0.144221 -20.937771 0.000000 -7.539997 -0.000001 -0.000000 -0.000000 0.000000 0.000001 0.000001 -0.000003 0.000000 0.000001 0.000001 0.000000 -0.000000 -0.000004 -0.000000 -0.000000 -0.000000 
